<svg id="Capa_1" data-name="Capa 1" xmlns="http://www.w3.org/2000/svg" viewBox="0 0 160.37615 49.69402"><title>logo principal</title><polygon points="7.528 46.986 19.382 46.986 46.478 27.341 46.478 18.761 35.64 10.858 11.14 28.809 11.14 21.696 31.996 6.942 25.498 2.708 15.092 10.181 15.092 6.681 8.205 6.681 8.205 15.148 4.141 18.309 4.141 42.244 35.556 19.687 41.427 22.848 7.528 46.986" fill="#322727"/><polygon points="41.471 22.9 46.518 22.9 46.518 15.498 30.481 5.965 25.659 9.218 25.659 37.142 46.63 37.142 46.63 27.386 41.808 27.386 41.808 30.282 30.817 30.282 30.817 14.167 41.471 20.111 41.471 22.9" fill="#858e5b"/><path d="M52.9568,19.34168a3.15851,3.15851,0,0,0,2.42139,1.27441,1.59449,1.59449,0,0,0,1.72754-1.48681c0-1.51514-2.0957-1.68506-3.4126-2.54883a2.52357,2.52357,0,0,1-1.26025-2.18067,2.79938,2.79938,0,0,1,3.002-2.63379,4.07417,4.07417,0,0,1,2.66211.99122l-.83545,1.03369a2.72487,2.72487,0,0,0-1.77-.67969,1.47577,1.47577,0,0,0-1.64258,1.331c0,1.26026,2.10987,1.5293,3.38428,2.37891a2.61684,2.61684,0,0,1,1.28858,2.26563A2.86625,2.86625,0,0,1,55.449,21.96131a4.44459,4.44459,0,0,1-3.46924-1.65674Z" fill="#322727"/><path d="M65.4612,17.43006v4.38965h-1.416V11.9076h3.75244A2.98385,2.98385,0,0,1,69.865,12.559a2.76657,2.76657,0,0,1,0,4.21973,2.98385,2.98385,0,0,1-2.06739.65137Zm2.26562-1.34522a1.64215,1.64215,0,0,0,1.30274-.439,1.40212,1.40212,0,0,0,0-1.9541,1.64212,1.64212,0,0,0-1.30274-.439H65.4612v2.832Z" fill="#322727"/><path d="M80.50026,19.27088H76.323l-1.03369,2.54883H73.81667l4.10644-9.91211h.99121l4.10645,9.91211H81.54811Zm-3.61084-1.34522H79.948L78.41872,14.244Z" fill="#322727"/><path d="M92.07057,11.766a4.94008,4.94008,0,0,1,3.625,1.5293l-.94873.93457a3.76167,3.76167,0,0,0-2.67627-1.11865,3.61231,3.61231,0,0,0-3.59668,3.75244A3.60709,3.60709,0,0,0,92.198,20.61609a3.71212,3.71212,0,0,0,2.8462-1.40185l1.00537.90625a5.07871,5.07871,0,0,1-8.9917-3.25684A4.97045,4.97045,0,0,1,92.07057,11.766Z" fill="#322727"/><path d="M105.96266,15.80164v1.34521h-3.25683v3.32764h4.38965v1.34522h-5.80567V11.9076h5.66406v1.34521h-4.248v2.54883Z" fill="#322727"/><path d="M57.06325,26.35828a4.9401,4.9401,0,0,1,3.625,1.5293l-.94873.93457a3.76169,3.76169,0,0,0-2.67627-1.11866,3.75416,3.75416,0,0,0,.12744,7.50489,3.71206,3.71206,0,0,0,2.84619-1.40186l1.00537.90625a5.089,5.089,0,1,1-3.979-8.35449Z" fill="#858e5b"/><path d="M67.6985,31.73914V36.412h-1.416V26.49988h3.46924a2.842,2.842,0,0,1,1.92578.58057,2.61624,2.61624,0,0,1,0,4.07812,2.3814,2.3814,0,0,1-1.16114.52393l3.5542,4.72949H72.35719l-3.52587-4.67285Zm1.98242-1.34522a1.53909,1.53909,0,0,0,1.18946-.36816,1.29948,1.29948,0,0,0,0-1.8125,1.53909,1.53909,0,0,0-1.18946-.36816H67.6985v2.54882Z" fill="#858e5b"/><path d="M83.70094,30.39392v1.34522H80.44411v3.32764h4.38965V36.412H79.02809V26.49988h5.66407V27.8451H80.44411v2.54882Z" fill="#858e5b"/><path d="M96.12038,33.86316H91.94313L90.90944,36.412H89.43678l4.10645-9.91211h.99121L98.64089,36.412H97.16823ZM92.50954,32.518h3.05859l-1.5293-3.68164Z" fill="#858e5b"/><path d="M101.7571,26.49988H108.554V27.8451h-2.69043V36.412h-1.416V27.8451H101.7571Z" fill="#858e5b"/><path d="M113.72341,26.49988h1.416V36.412h-1.416Z" fill="#858e5b"/><path d="M125.54762,26.35828a5.09968,5.09968,0,1,1-4.956,5.09766A4.94142,4.94142,0,0,1,125.54762,26.35828Zm0,8.8501a3.559,3.559,0,0,0,3.54-3.75244,3.54605,3.54605,0,1,0-7.08008,0A3.559,3.559,0,0,0,125.54762,35.20838Z" fill="#858e5b"/><path d="M137.37282,29.13367V36.412h-1.416V26.49988h.99121l5.94727,7.27832V26.49988h1.416V36.412h-.99122Z" fill="#858e5b"/><path d="M150.67067,33.934a3.15852,3.15852,0,0,0,2.42139,1.27442,1.5945,1.5945,0,0,0,1.72754-1.48682c0-1.51514-2.09571-1.68506-3.4126-2.54883a2.52355,2.52355,0,0,1-1.26025-2.18066,2.79937,2.79937,0,0,1,3.00195-2.63379,4.07423,4.07423,0,0,1,2.66211.99121l-.83545,1.03369a2.725,2.725,0,0,0-1.77-.67969,1.47578,1.47578,0,0,0-1.64258,1.33106c0,1.26025,2.10986,1.5293,3.38428,2.37891a2.61681,2.61681,0,0,1,1.28857,2.26562,2.86623,2.86623,0,0,1-3.07275,2.87451,4.44455,4.44455,0,0,1-3.46924-1.65674Z" fill="#858e5b"/></svg>