<svg id="Capa_1" data-name="Capa 1" xmlns="http://www.w3.org/2000/svg" viewBox="0 0 309.17585 100.7998"><title>logo segundo</title><polygon points="14.134 92.48 37.044 92.48 89.41 54.515 89.41 37.932 68.464 22.659 21.117 57.351 21.117 43.605 61.423 15.09 48.865 6.908 28.753 21.349 28.753 14.586 15.444 14.586 15.444 30.95 7.589 37.059 7.589 83.316 68.302 39.722 79.649 45.831 14.134 92.48" fill="#322727"/><polygon points="79.734 45.931 89.488 45.931 89.488 31.626 58.494 13.203 49.175 19.489 49.175 73.456 89.704 73.456 89.704 54.6 80.385 54.6 80.385 60.197 59.145 60.197 59.145 29.054 79.734 40.541 79.734 45.931" fill="#fff"/><path d="M101.93241,39.05284a6.10711,6.10711,0,0,0,4.68115,2.46289,3.082,3.082,0,0,0,3.33936-2.874c0-2.92871-4.05127-3.25781-6.59717-4.92773a4.87743,4.87743,0,0,1-2.436-4.21485c0-2.793,2.46387-5.09179,5.80322-5.09179a7.87556,7.87556,0,0,1,5.14649,1.916l-1.61524,1.998a5.26677,5.26677,0,0,0-3.42187-1.31348c-1.5874,0-3.17529.90332-3.17529,2.57324,0,2.43555,4.07861,2.95606,6.54248,4.59864a5.05828,5.05828,0,0,1,2.49121,4.37988c0,3.36719-2.60059,5.55664-5.94043,5.55664a8.59239,8.59239,0,0,1-6.70654-3.20215Z" fill="#322727"/><path d="M126.0994,35.35655v8.48633h-2.7373V24.68077h7.2539a5.76776,5.76776,0,0,1,3.99658,1.25977,5.34735,5.34735,0,0,1,0,8.15722,5.76767,5.76767,0,0,1-3.99658,1.25879Zm4.37988-2.60058a3.17411,3.17411,0,0,0,2.51856-.84863,2.71111,2.71111,0,0,0,0-3.77735,3.17408,3.17408,0,0,0-2.51856-.84863H126.0994V32.756Z" fill="#322727"/><path d="M155.16678,38.91515H147.0911l-1.99805,4.92773h-2.84717l7.93848-19.16211h1.9165l7.93848,19.16211h-2.84717Zm-6.98047-2.60059h5.9126l-2.956-7.11719Z" fill="#322727"/><path d="M177.52616,24.40734a9.54973,9.54973,0,0,1,7.00781,2.956L182.7,29.17a7.27284,7.27284,0,0,0-5.17383-2.16211,6.98292,6.98292,0,0,0-6.95313,7.25391,6.97324,6.97324,0,0,0,7.19971,7.2539,7.1734,7.1734,0,0,0,5.50195-2.71l1.94385,1.752a9.81825,9.81825,0,0,1-17.38281-6.2959A9.60892,9.60892,0,0,1,177.52616,24.40734Z" fill="#322727"/><path d="M204.3743,32.20909v2.60059h-6.2959V41.2423h8.48584v2.60058H195.3411V24.68077h10.94971v2.60059H198.0784v4.92773Z" fill="#322727"/><path d="M109.87088,52.60851a9.54975,9.54975,0,0,1,7.00782,2.956l-1.834,1.80664a7.27283,7.27283,0,0,0-5.17383-2.16211,7.25721,7.25721,0,0,0,.24659,14.50782,7.17341,7.17341,0,0,0,5.502-2.71l1.94385,1.752a9.838,9.838,0,1,1-7.69239-16.15039Z" fill="#fff"/><path d="M130.42362,63.01085v9.0332h-2.73731V52.88194h6.70655a5.49767,5.49767,0,0,1,3.72265,1.12207,5.05713,5.05713,0,0,1,0,7.88379,4.6071,4.6071,0,0,1-2.24463,1.01368l6.8711,9.14257h-3.3125l-6.81592-9.0332Zm3.83252-2.60059a2.97743,2.97743,0,0,0,2.29931-.71191,2.51164,2.51164,0,0,0,0-3.50391,2.97368,2.97368,0,0,0-2.29931-.71191h-3.83252v4.92773Z" fill="#fff"/><path d="M161.35135,60.41026v2.60059h-6.2959v6.43262h8.48584v2.60058H152.31815V52.88194h10.94971v2.60059h-8.21241v4.92773Z" fill="#fff"/><path d="M185.35379,67.11632h-8.07568l-1.99805,4.92773H172.4329l7.93847-19.16211h1.91651l7.93847,19.16211h-2.84717Zm-6.98046-2.60059h5.91259l-2.95605-7.11718Z" fill="#fff"/><path d="M196.24344,52.88194h13.13965v2.60059h-5.20117V72.04405h-2.73731V55.48253h-5.20117Z" fill="#fff"/><path d="M219.3704,52.88194h2.7373V72.04405h-2.7373Z" fill="#fff"/><path d="M242.22489,52.60851a9.85839,9.85839,0,1,1-9.58106,9.85449A9.55287,9.55287,0,0,1,242.22489,52.60851Zm0,17.1084c3.91455,0,6.84375-3.09278,6.84375-7.25391,0-4.13379-2.9292-7.25391-6.84375-7.25391s-6.84375,3.12012-6.84375,7.25391C235.38114,66.62413,238.31034,69.71691,242.22489,69.71691Z" fill="#fff"/><path d="M265.07645,57.97374V72.04405h-2.7373V52.88194h1.916l11.49707,14.07032V52.88194H278.49V72.04405h-1.9165Z" fill="#fff"/><path d="M290.77469,67.254a6.10713,6.10713,0,0,0,4.68116,2.4629,3.08243,3.08243,0,0,0,3.33984-2.874c0-2.92871-4.05176-3.25781-6.59766-4.92773a4.87743,4.87743,0,0,1-2.436-4.21485c0-2.793,2.46338-5.09179,5.80322-5.09179a7.87553,7.87553,0,0,1,5.14648,1.916l-1.61523,1.998a5.26681,5.26681,0,0,0-3.42187-1.31348c-1.58741,0-3.1753.90332-3.1753,2.57325,0,2.43554,4.07862,2.95605,6.54248,4.59863a5.05828,5.05828,0,0,1,2.49121,4.37988c0,3.36719-2.60058,5.55664-5.94043,5.55664a8.5924,8.5924,0,0,1-6.70654-3.20215Z" fill="#fff"/></svg>